<svg version="1.1" id="Icon_Set" xmlns="http://www.w3.org/2000/svg" x="0" y="0" viewBox="0 0 256 256" style="enable-background:new 0 0 256 256" xml:space="preserve"><style>.st0{fill:#4c4372}.st2{fill:#fff}.st5{fill:#d4e7f8}</style><circle cx="128" cy="128" r="104.245" style="fill:#f1c48b"/><path class="st2" d="M197.41 181H58.59a6.41 6.41 0 0 1-6.41-6.41V81.41A6.41 6.41 0 0 1 58.59 75h138.82a6.41 6.41 0 0 1 6.41 6.41v93.18a6.41 6.41 0 0 1-6.41 6.41z"/><path d="M117.662 160.782H70.735a6.444 6.444 0 0 1-6.444-6.443v-52.677a6.443 6.443 0 0 1 6.444-6.443h46.927a6.443 6.443 0 0 1 6.443 6.443v52.677a6.443 6.443 0 0 1-6.443 6.443z" style="fill:#fd919e"/><path d="M117.662 95.218h-9.583a6.443 6.443 0 0 1 6.443 6.443v52.677a6.443 6.443 0 0 1-6.443 6.443h9.583a6.444 6.444 0 0 0 6.444-6.443v-52.677a6.445 6.445 0 0 0-6.444-6.443z" style="fill:#e8677d"/><path class="st5" d="M197.41 75h-13.319a6.41 6.41 0 0 1 6.41 6.41v93.18a6.41 6.41 0 0 1-6.41 6.41h13.319a6.41 6.41 0 0 0 6.41-6.41V81.41a6.41 6.41 0 0 0-6.41-6.41z"/><path d="M106.889 140.142h-8.441c-.172 2.119-1.927 3.791-4.09 3.791-2.164 0-3.918-1.672-4.09-3.791h-8.441a7.793 7.793 0 0 0-7.793 7.793v12.847h40.648v-12.847a7.794 7.794 0 0 0-7.793-7.793z" style="fill:#a3d0f1"/><path class="st0" d="M197.41 184H58.59c-5.188 0-9.41-4.221-9.41-9.41V81.41c0-5.189 4.222-9.41 9.41-9.41h138.82c5.188 0 9.41 4.221 9.41 9.41v93.18c0 5.189-4.221 9.41-9.41 9.41zM58.59 78c-1.88 0-3.41 1.53-3.41 3.41v93.18c0 1.88 1.53 3.41 3.41 3.41h138.82c1.88 0 3.41-1.53 3.41-3.41V81.41c0-1.88-1.53-3.41-3.41-3.41H58.59z"/><path class="st0" d="M117.662 163.782H70.735c-5.207 0-9.443-4.236-9.443-9.443v-52.677c0-5.207 4.236-9.443 9.443-9.443h46.927c5.207 0 9.443 4.236 9.443 9.443v52.677c0 5.206-4.236 9.443-9.443 9.443zM70.735 98.218a3.447 3.447 0 0 0-3.443 3.443v52.677a3.447 3.447 0 0 0 3.443 3.443h46.927a3.447 3.447 0 0 0 3.443-3.443v-52.677a3.447 3.447 0 0 0-3.443-3.443H70.735z"/><path class="st5" d="M94.357 134.666a9.697 9.697 0 0 1-4.124-.925v6.068a4.124 4.124 0 0 0 8.248 0v-6.068a9.697 9.697 0 0 1-4.124.925z"/><path class="st0" d="M191.708 98.218h-55.5a3 3 0 1 1 0-6h55.5a3 3 0 1 1 0 6zM191.708 120.073h-55.5a3 3 0 1 1 0-6h55.5a3 3 0 1 1 0 6zM191.708 141.927h-55.5a3 3 0 1 1 0-6h55.5a3 3 0 1 1 0 6zM191.708 163.782h-27.75a3 3 0 1 1 0-6h27.75a3 3 0 1 1 0 6z"/><path class="st2" d="M94.357 134.666c-5.38 0-9.742-4.361-9.742-9.742v-6.633c0-5.38 4.361-9.742 9.742-9.742 5.38 0 9.742 4.361 9.742 9.742v6.633c0 5.381-4.362 9.742-9.742 9.742z"/><path class="st0" d="M114.682 163.782H74.033a3 3 0 0 1-3-3v-12.847c0-5.951 4.842-10.792 10.793-10.792h8.44a3 3 0 0 1 2.99 2.756c.048.59.521 1.035 1.101 1.035s1.052-.444 1.1-1.034a3 3 0 0 1 2.99-2.757h8.441c5.951 0 10.793 4.841 10.793 10.792v12.847a2.999 2.999 0 0 1-2.999 3zm-37.649-6h34.648v-9.847a4.797 4.797 0 0 0-4.793-4.792h-6.262c-1.206 2.257-3.588 3.791-6.27 3.791-2.681 0-5.063-1.534-6.27-3.791h-6.262a4.798 4.798 0 0 0-4.793 4.792v9.847z"/><path class="st0" d="M94.357 146.933c-3.928 0-7.124-3.196-7.124-7.124v-6.068a3 3 0 0 1 4.273-2.717 6.675 6.675 0 0 0 5.703 0 3.002 3.002 0 0 1 4.273 2.717v6.068c-.001 3.928-3.197 7.124-7.125 7.124zm-1.124-9.316v2.192a1.125 1.125 0 0 0 2.248 0v-2.192c-.744.065-1.503.065-2.248 0z"/><path class="st0" d="M94.357 137.666c-7.026 0-12.742-5.716-12.742-12.742v-6.632c0-7.026 5.716-12.742 12.742-12.742 7.025 0 12.741 5.716 12.741 12.742v6.632c.001 7.026-5.715 12.742-12.741 12.742zm0-26.116a6.75 6.75 0 0 0-6.742 6.742v6.632a6.75 6.75 0 0 0 6.742 6.742 6.749 6.749 0 0 0 6.741-6.742v-6.632a6.749 6.749 0 0 0-6.741-6.742z"/></svg>